Normalized EMG Linear Envelopes
nRows=224
nColumns=4

endheader
time	 med_gas_r	  soleus_r	 tib_ant_r	
3.16028	  0.010866	  0.011703	  0.008557	
3.19355	  0.010687	  0.011575	  0.008534	
3.22681	  0.010505	  0.011443	  0.008609	
3.26008	  0.010412	  0.011328	  0.008770	
3.29335	  0.010436	  0.011254	  0.008994	
3.32661	  0.010533	  0.011224	  0.009200	
3.35988	  0.010623	  0.011232	  0.009276	
3.39315	  0.010624	  0.011284	  0.009202	
3.42641	  0.010511	  0.011370	  0.009026	
3.45968	  0.010335	  0.011465	  0.008810	
3.49294	  0.010142	  0.011551	  0.008584	
3.52621	  0.009969	  0.011609	  0.008382	
3.55948	  0.009851	  0.011637	  0.008246	
3.59274	  0.009837	  0.011620	  0.008177	
3.62601	  0.009974	  0.011546	  0.008152	
3.65927	  0.010255	  0.011403	  0.008189	
3.69254	  0.010649	  0.011214	  0.008330	
3.72581	  0.011106	  0.011017	  0.008569	
3.75907	  0.011583	  0.010830	  0.008864	
3.79234	  0.012005	  0.010673	  0.009137	
3.8256	  0.012308	  0.010575	  0.009316	
3.85887	  0.012473	  0.010558	  0.009352	
3.89214	  0.012497	  0.010614	  0.009246	
3.9254	  0.012405	  0.010726	  0.009054	
3.95867	  0.012196	  0.010868	  0.008839	
3.99194	  0.011940	  0.011021	  0.008639	
4.0252	  0.011665	  0.011191	  0.008501	
4.05847	  0.011352	  0.011373	  0.008458	
4.09173	  0.011019	  0.011525	  0.008505	
4.125	  0.010711	  0.011651	  0.008622	
4.15827	  0.010473	  0.011772	  0.008792	
4.19153	  0.010363	  0.011872	  0.008988	
4.2248	  0.010412	  0.011934	  0.009181	
4.25806	  0.010632	  0.011963	  0.009326	
4.29133	  0.011028	  0.011972	  0.009494	
4.3246	  0.011566	  0.011995	  0.009880	
4.35786	  0.012159	  0.012043	  0.010749	
4.39113	  0.012680	  0.012071	  0.012340	
4.4244	  0.013008	  0.012054	  0.014867	
4.45766	  0.013045	  0.012008	  0.018554	
4.49093	  0.012792	  0.011954	  0.023519	
4.52419	  0.012377	  0.011906	  0.029817	
4.55746	  0.011913	  0.011873	  0.037279	
4.59073	  0.011456	  0.011857	  0.045347	
4.62399	  0.011071	  0.011835	  0.052915	
4.65726	  0.010747	  0.011765	  0.058985	
4.69052	  0.010434	  0.011602	  0.062961	
4.72379	  0.010096	  0.011339	  0.064243	
4.75706	  0.009715	  0.011027	  0.062712	
4.79032	  0.009330	  0.010688	  0.059540	
4.82359	  0.009005	  0.010324	  0.055830	
4.85685	  0.008799	  0.009944	  0.052291	
4.89012	  0.008738	  0.009603	  0.050632	
4.92339	  0.008871	  0.009388	  0.052950	
4.95665	  0.009265	  0.009409	  0.060753	
4.98992	  0.009970	  0.009771	  0.074757	
5.02319	  0.011026	  0.010583	  0.095537	
5.05645	  0.012492	  0.011975	  0.124053	
5.08972	  0.014473	  0.014085	  0.161021	
5.12298	  0.017019	  0.016996	  0.204944	
5.15625	  0.020089	  0.020681	  0.251947	
5.18952	  0.023533	  0.025037	  0.297317	
5.22278	  0.027113	  0.029944	  0.337311	
5.25605	  0.030555	  0.035131	  0.369179	
5.28931	  0.033492	  0.040264	  0.390806	
5.32258	  0.035498	  0.045033	  0.404064	
5.35585	  0.036525	  0.049261	  0.412564	
5.38911	  0.036995	  0.053092	  0.419372	
5.42238	  0.037357	  0.056824	  0.428121	
5.45565	  0.038021	  0.060812	  0.441270	
5.48891	  0.039315	  0.065299	  0.461171	
5.52218	  0.041147	  0.070384	  0.485795	
5.55544	  0.043213	  0.075814	  0.510105	
5.58871	  0.045155	  0.081146	  0.529808	
5.62198	  0.046516	  0.085529	  0.541029	
5.65524	  0.047021	  0.087997	  0.541159	
5.68851	  0.046848	  0.088163	  0.533311	
5.72177	  0.046305	  0.086237	  0.524441	
5.75504	  0.045799	  0.083168	  0.519092	
5.78831	  0.045777	  0.080275	  0.521552	
5.82157	  0.046459	  0.078354	  0.534032	
5.85484	  0.047700	  0.077512	  0.554249	
5.8881	  0.049255	  0.077655	  0.580972	
5.92137	  0.050850	  0.078367	  0.613601	
5.95464	  0.052144	  0.079318	  0.648401	
5.9879	  0.052789	  0.080277	  0.679308	
6.02117	  0.052616	  0.081045	  0.700674	
6.05444	  0.051999	  0.081914	  0.712945	
6.0877	  0.051397	  0.083048	  0.719892	
6.12097	  0.051078	  0.084351	  0.725171	
6.15423	  0.050898	  0.085156	  0.729551	
6.1875	  0.050474	  0.084704	  0.730981	
6.22077	  0.049935	  0.083390	  0.726869	
6.25403	  0.049616	  0.082248	  0.717029	
6.2873	  0.049651	  0.081858	  0.705942	
6.32056	  0.050001	  0.082461	  0.698237	
6.35383	  0.050562	  0.084180	  0.696178	
6.3871	  0.051151	  0.086767	  0.695739	
6.42036	  0.051593	  0.089581	  0.695617	
6.45363	  0.051982	  0.092235	  0.695880	
6.4869	  0.052471	  0.094701	  0.695477	
6.52016	  0.053091	  0.096852	  0.695196	
6.55343	  0.053962	  0.098799	  0.697093	
6.58669	  0.055149	  0.100629	  0.700072	
6.61996	  0.056724	  0.102165	  0.701487	
6.65323	  0.058498	  0.103576	  0.700096	
6.68649	  0.060047	  0.105266	  0.692953	
6.71976	  0.061254	  0.107408	  0.681168	
6.75302	  0.061944	  0.109491	  0.666687	
6.78629	  0.061803	  0.110581	  0.652652	
6.81956	  0.061102	  0.110565	  0.643178	
6.85282	  0.060517	  0.110360	  0.641606	
6.88609	  0.060492	  0.110448	  0.648281	
6.91935	  0.061217	  0.111243	  0.661502	
6.95262	  0.062314	  0.112269	  0.678531	
6.98589	  0.063103	  0.112180	  0.694839	
7.01915	  0.063234	  0.110418	  0.709634	
7.05242	  0.062575	  0.107167	  0.722488	
7.08569	  0.061479	  0.103047	  0.731231	
7.11895	  0.060230	  0.098899	  0.731997	
7.15222	  0.059253	  0.095672	  0.724992	
7.18548	  0.058813	  0.093770	  0.711010	
7.21875	  0.058976	  0.093078	  0.690428	
7.25202	  0.059807	  0.093306	  0.666725	
7.28528	  0.060867	  0.093665	  0.642067	
7.31855	  0.061462	  0.093338	  0.617415	
7.35181	  0.061146	  0.092346	  0.594653	
7.38508	  0.059748	  0.090881	  0.575299	
7.41835	  0.057721	  0.089901	  0.562486	
7.45161	  0.055732	  0.090103	  0.560614	
7.48488	  0.054158	  0.091358	  0.570318	
7.51815	  0.053437	  0.093495	  0.591400	
7.55141	  0.053667	  0.096176	  0.623273	
7.58468	  0.054470	  0.098584	  0.662807	
7.61794	  0.055420	  0.100191	  0.704280	
7.65121	  0.056179	  0.100935	  0.742350	
7.68448	  0.056722	  0.100983	  0.775816	
7.71774	  0.057198	  0.100619	  0.801211	
7.75101	  0.057624	  0.099855	  0.812255	
7.78427	  0.057821	  0.098133	  0.804113	
7.81754	  0.057628	  0.095186	  0.775819	
7.85081	  0.056766	  0.091111	  0.730149	
7.88407	  0.055266	  0.086404	  0.676767	
7.91734	  0.053419	  0.081576	  0.627628	
7.9506	  0.051850	  0.077339	  0.592395	
7.98387	  0.050959	  0.074163	  0.574977	
8.01714	  0.050842	  0.072318	  0.574397	
8.0504	  0.051305	  0.071796	  0.584081	
8.08367	  0.052254	  0.072399	  0.597009	
8.11694	  0.053562	  0.073665	  0.610137	
8.1502	  0.054806	  0.074773	  0.619950	
8.18347	  0.055226	  0.074940	  0.623643	
8.21673	  0.054534	  0.074134	  0.622355	
8.25	  0.052873	  0.072585	  0.619554	
8.28327	  0.050841	  0.070883	  0.618928	
8.31653	  0.048842	  0.069321	  0.622049	
8.3498	  0.047042	  0.067901	  0.629788	
8.38306	  0.045677	  0.066687	  0.640463	
8.41633	  0.044928	  0.065893	  0.650009	
8.4496	  0.044790	  0.065697	  0.653044	
8.48286	  0.045183	  0.066272	  0.645194	
8.51613	  0.045909	  0.067363	  0.629124	
8.5494	  0.046758	  0.068431	  0.611199	
8.58266	  0.047518	  0.069048	  0.595441	
8.61593	  0.048051	  0.069113	  0.584329	
8.64919	  0.048605	  0.068994	  0.578351	
8.68246	  0.049226	  0.068491	  0.578022	
8.71573	  0.049789	  0.067448	  0.583691	
8.74899	  0.050056	  0.066018	  0.593617	
8.78226	  0.050058	  0.064589	  0.606695	
8.81552	  0.049684	  0.063113	  0.620361	
8.84879	  0.048873	  0.061381	  0.633393	
8.88206	  0.047948	  0.059721	  0.642716	
8.91532	  0.047392	  0.059042	  0.645884	
8.94859	  0.047322	  0.059786	  0.645921	
8.98185	  0.047717	  0.061661	  0.650880	
9.01512	  0.048633	  0.063921	  0.664046	
9.04839	  0.049981	  0.066082	  0.682473	
9.08165	  0.051329	  0.067919	  0.698108	
9.11492	  0.052155	  0.069453	  0.703783	
9.14819	  0.052587	  0.070979	  0.700072	
9.18145	  0.052934	  0.072908	  0.691700	
9.21472	  0.053244	  0.075164	  0.680922	
9.24798	  0.053563	  0.077189	  0.670616	
9.28125	  0.053844	  0.078307	  0.660642	
9.31452	  0.054095	  0.078482	  0.649775	
9.34778	  0.054380	  0.078157	  0.638510	
9.38105	  0.054661	  0.077560	  0.627730	
9.41431	  0.054824	  0.076811	  0.619463	
9.44758	  0.054780	  0.076077	  0.616931	
9.48085	  0.054515	  0.075530	  0.622033	
9.51411	  0.054215	  0.075331	  0.634068	
9.54738	  0.053906	  0.075697	  0.649708	
9.58065	  0.053509	  0.076564	  0.664397	
9.61391	  0.052966	  0.077702	  0.675688	
9.64718	  0.052234	  0.078704	  0.680902	
9.68044	  0.051332	  0.079020	  0.682060	
9.71371	  0.050381	  0.078529	  0.683656	
9.74698	  0.049818	  0.077919	  0.689612	
9.78024	  0.049624	  0.077475	  0.700687	
9.81351	  0.049686	  0.077045	  0.714425	
9.84677	  0.049957	  0.076763	  0.724711	
9.88004	  0.050407	  0.077031	  0.728369	
9.91331	  0.050979	  0.077954	  0.724773	
9.94657	  0.051673	  0.079413	  0.712727	
9.97984	  0.052025	  0.080596	  0.693460	
10.0131	  0.051479	  0.080465	  0.666097	
10.0464	  0.050030	  0.078646	  0.632138	
10.0796	  0.047689	  0.075105	  0.592281	
10.1129	  0.044715	  0.070173	  0.548109	
10.1462	  0.041479	  0.064250	  0.500189	
10.1794	  0.038177	  0.057619	  0.452257	
10.2127	  0.035114	  0.050972	  0.407499	
10.246	  0.032404	  0.044807	  0.367707	
10.2792	  0.029847	  0.039132	  0.331956	
10.3125	  0.027356	  0.033977	  0.298209	
10.3458	  0.025019	  0.029260	  0.266654	
10.379	  0.022939	  0.025087	  0.238337	
10.4123	  0.021184	  0.021731	  0.212606	
10.4456	  0.019644	  0.019198	  0.187019	
10.4788	  0.018163	  0.017234	  0.159983	
10.5121	  0.016763	  0.015591	  0.133166	
10.5454	  0.015508	  0.014223	  0.109142	
10.5786	  0.014411	  0.013132	  0.088348	
